<?xml version="1.0" encoding="UTF-8" standalone="no"?>
<!-- Uploaded to: SVG Repo, www.svgrepo.com, Transformed by: SVG Repo Mixer Tools -->

<svg
   fill="#000000"
   height="50"
   width="50"
   version="1.1"
   id="Capa_1"
   viewBox="-47.78 -47.78 286.67 286.67"
   xml:space="preserve"
   sodipodi:docname="zeton-maly.svg"
   inkscape:version="1.4.2 (f4327f4, 2025-05-13)"
   xmlns:inkscape="http://www.inkscape.org/namespaces/inkscape"
   xmlns:sodipodi="http://sodipodi.sourceforge.net/DTD/sodipodi-0.dtd"
   xmlns="http://www.w3.org/2000/svg"
   xmlns:svg="http://www.w3.org/2000/svg"><defs
   id="defs2" /><sodipodi:namedview
   id="namedview2"
   pagecolor="#ffffff"
   bordercolor="#000000"
   borderopacity="0.25"
   inkscape:showpageshadow="2"
   inkscape:pageopacity="0.0"
   inkscape:pagecheckerboard="0"
   inkscape:deskcolor="#d1d1d1"
   inkscape:zoom="4.035"
   inkscape:cx="-9.913259"
   inkscape:cy="22.428748"
   inkscape:window-width="1920"
   inkscape:window-height="1009"
   inkscape:window-x="1912"
   inkscape:window-y="-8"
   inkscape:window-maximized="1"
   inkscape:current-layer="Capa_1"
   inkscape:lockguides="false" />

<g
   id="SVGRepo_bgCarrier"
   stroke-width="0"
   transform="matrix(0.4920055,0,0,0.4920055,-21.979695,-21.9797)">

<rect
   x="-47.779999"
   y="-47.779999"
   width="573.34003"
   height="573.34003"
   rx="286.67001"
   fill="#9cec7e"
   strokewidth="0"
   id="rect1" />

</g>

<g
   id="SVGRepo_tracerCarrier"
   stroke-linecap="round"
   stroke-linejoin="round"
   transform="matrix(0.6000067,0,0,0.6000067,-47.78,-47.78)" />

<g
   id="SVGRepo_iconCarrier"
   transform="matrix(0.6000067,0,0,0.6000067,-47.78,-47.78)"> <g
   id="g2"> <path
   d="M 461.4,152.432 C 451.618,127.291 437.807,104.211 420.59,84.04 384.958,42.264 335.206,13.08 278.704,3.585 265.732,1.4 252.482,0 238.889,0 225.295,0 212.044,1.4 199.074,3.585 142.571,13.08 92.834,42.256 57.187,84.024 39.985,104.204 26.174,127.276 16.393,152.416 5.94,179.261 0,208.351 0,238.889 c 0,28.065 5.085,54.878 13.981,79.894 9.051,25.445 22.131,48.945 38.726,69.592 35.881,44.636 87.452,75.919 146.367,85.818 12.97,2.185 26.221,3.585 39.815,3.585 13.593,0 26.843,-1.4 39.815,-3.585 58.913,-9.9 110.486,-41.183 146.366,-85.812 16.595,-20.645 29.675,-44.145 38.725,-69.59 8.896,-25.016 13.983,-51.837 13.983,-79.902 0,-30.53 -5.942,-59.62 -16.378,-86.457 z M 433.375,168.6 391.6,192.713 c -7.915,-26.128 -22.365,-49.41 -41.447,-68.012 l 42.162,-24.34 c 17.808,19.706 31.837,42.794 41.06,68.239 z m -66.752,70.289 c 0,70.431 -57.297,127.734 -127.734,127.734 -70.439,0 -127.735,-57.303 -127.735,-127.734 0,-70.429 57.297,-127.734 127.735,-127.734 70.437,0 127.734,57.305 127.734,127.734 z M 238.889,31.852 c 13.623,0 26.921,1.408 39.815,3.927 v 48.757 c -12.754,-3.297 -26.052,-5.233 -39.815,-5.233 -13.765,0 -27.063,1.937 -39.815,5.233 V 35.779 c 12.892,-2.519 26.19,-3.927 39.815,-3.927 z m -153.413,68.502 42.164,24.347 c -19.082,18.594 -33.546,41.876 -41.463,68.004 L 44.402,168.592 C 53.64,143.147 67.669,120.059 85.476,100.354 Z M 41.992,302.609 84.388,278.137 c 6.75,26.556 20.11,50.438 38.321,69.824 L 80.717,372.199 C 63.626,351.942 50.359,328.388 41.992,302.609 Z m 196.897,143.317 c -13.625,0 -26.923,-1.408 -39.815,-3.927 v -48.757 c 12.752,3.298 26.05,5.233 39.815,5.233 13.763,0 27.061,-1.935 39.815,-5.233 v 48.757 c -12.894,2.519 -26.192,3.927 -39.815,3.927 z m 158.154,-73.727 -41.976,-24.238 c 18.211,-19.379 31.572,-43.268 38.321,-69.824 l 42.396,24.48 c -8.367,25.771 -21.633,49.325 -38.741,69.582 z"
   id="path1" /> <path
   d="m 252.388,221.533 c -20.312,-7.644 -28.664,-12.66 -28.664,-20.546 0,-6.687 5.009,-13.374 20.545,-13.374 8.958,0 16.238,1.486 22.024,3.289 3.281,1.019 6.842,0.639 9.86,-1.042 3.002,-1.672 5.179,-4.51 6.034,-7.847 l 0.218,-0.823 c 1.943,-7.613 -2.629,-15.375 -10.25,-17.342 -5.848,-1.516 -12.8,-2.62 -21.197,-2.994 v -8.969 c 0,-6.096 -4.518,-11.429 -10.587,-11.997 -6.96,-0.651 -12.821,4.817 -12.821,11.651 v 10.987 c -25.567,5.015 -40.374,21.501 -40.374,42.52 0,23.174 17.434,35.118 43.003,43.718 17.669,5.972 25.319,11.704 25.319,20.778 0,9.557 -9.315,14.815 -22.94,14.815 -9.751,0 -18.944,-1.983 -26.921,-4.813 -3.328,-1.19 -7.015,-0.903 -10.142,0.761 -3.125,1.664 -5.412,4.556 -6.283,7.995 l -0.108,0.405 c -2.084,8.141 2.612,16.469 10.653,18.896 7.885,2.371 17.156,4.043 26.595,4.464 v 10.669 c 0,6.464 5.24,11.704 11.704,11.704 v 0 c 6.464,0 11.704,-5.24 11.704,-11.704 v -12.341 c 27.466,-4.775 42.521,-22.933 42.521,-44.193 0,-21.493 -11.462,-34.635 -39.893,-44.667 z"
   id="path2" /> </g> </g>

</svg>
